STARTFONT 2.1
COMMENT This font was automaticaly reencoded from ISO8859-2 to ISO10646-1.
COMMENT by trbdf utility (ftp://lml.bas.bg/home/anton/linux/trscripts-1.5.tar.gz)
COMMENT The COMMENTs below (if any) are from the original font.
COMMENT ---------------------------------------------------------
COMMENT +
COMMENT  Copyright 1986, 1985 Bigelow & Holmes. 
COMMENT  Copyright 1996 BIZNET Poland, Inc.
COMMENT -
FONT -BIZNET-FotinosTypewriter-Bold-R-Normal-Sans-14-140-75-75-M-90-ISO10646-1
SIZE 14 72 72
FONTBOUNDINGBOX 9 13 0 -2
STARTPROPERTIES 21
FOUNDRY "BIZNET"
FAMILY_NAME "BIZNET FotinosTypewriter"
WEIGHT_NAME "Bold"
SLANT "R"
SETWIDTH_NAME "Normal"
ADD_STYLE_NAME "Sans"
PIXEL_SIZE 14
POINT_SIZE 140
RESOLUTION_X 75
RESOLUTION_Y 75
SPACING "M"
AVERAGE_WIDTH 90
CHARSET_REGISTRY "ISO10646"
CHARSET_ENCODING "1"
FONT_ASCENT 13
FONT_DESCENT 2
FACE_NAME "BIZNET Fotinos Sans Typewriter Bold"
CHARSET_COLLECTIONS "ASCII ISO8859-2"
COPYRIGHT "Copyright Bigelow & Holmes 1986, 1985. Copyright (c) 1996 BIZNET Poland, Inc. All Rights Reserved."
NOTICE "The name "BIZNET" is a registered trademark of BIZNET Poland, Inc."
DEFAULT_CHAR 32
ENDPROPERTIES
CHARS 213
STARTCHAR Lslash
ENCODING 321
SWIDTH 602 0
DWIDTH 9 0
BBX 8 10 0 0
BITMAP
30
30
30
3C
F0
30
30
30
30
3F
ENDCHAR
STARTCHAR lslash
ENCODING 322
SWIDTH 602 0
DWIDTH 9 0
BBX 7 11 1 0
BITMAP
F8
18
18
18
1E
78
18
18
18
18
18
ENDCHAR
STARTCHAR Nacute
ENCODING 323
SWIDTH 602 0
DWIDTH 9 0
BBX 7 13 1 0
BITMAP
0C
30
00
C2
E2
E2
B2
B2
9A
9A
8E
8E
86
ENDCHAR
STARTCHAR nacute
ENCODING 324
SWIDTH 602 0
DWIDTH 9 0
BBX 7 11 1 0
BITMAP
0C
30
00
DC
EE
C6
C6
C6
C6
C6
C6
ENDCHAR
STARTCHAR n
ENCODING 110
SWIDTH 602 0
DWIDTH 9 0
BBX 7 8 1 0
BITMAP
DC
EE
C6
C6
C6
C6
C6
C6
ENDCHAR
STARTCHAR o
ENCODING 111
SWIDTH 602 0
DWIDTH 9 0
BBX 7 8 1 0
BITMAP
38
6C
C6
C6
C6
C6
6C
38
ENDCHAR
STARTCHAR p
ENCODING 112
SWIDTH 602 0
DWIDTH 9 0
BBX 7 10 1 -2
BITMAP
D8
EC
C6
C6
C6
C6
CC
F8
C0
C0
ENDCHAR
STARTCHAR Ncaron
ENCODING 327
SWIDTH 602 0
DWIDTH 9 0
BBX 7 13 1 0
BITMAP
24
18
00
C2
E2
E2
B2
B2
9A
9A
8E
8E
86
ENDCHAR
STARTCHAR Racute
ENCODING 340
SWIDTH 602 0
DWIDTH 9 0
BBX 7 13 1 0
BITMAP
0C
30
00
F8
CC
CC
CC
D8
F0
CC
CC
C6
C6
ENDCHAR
STARTCHAR q
ENCODING 113
SWIDTH 602 0
DWIDTH 9 0
BBX 7 10 1 -2
BITMAP
3E
66
C6
C6
C6
C6
6E
36
06
06
ENDCHAR
STARTCHAR ncaron
ENCODING 328
SWIDTH 602 0
DWIDTH 9 0
BBX 7 11 1 0
BITMAP
24
18
00
DC
EE
C6
C6
C6
C6
C6
C6
ENDCHAR
STARTCHAR racute
ENCODING 341
SWIDTH 602 0
DWIDTH 9 0
BBX 6 11 2 0
BITMAP
0C
30
00
CC
DC
E4
C0
C0
C0
C0
C0
ENDCHAR
STARTCHAR r
ENCODING 114
SWIDTH 602 0
DWIDTH 9 0
BBX 6 8 2 0
BITMAP
CC
DC
E4
C0
C0
C0
C0
C0
ENDCHAR
STARTCHAR s
ENCODING 115
SWIDTH 602 0
DWIDTH 9 0
BBX 7 8 1 0
BITMAP
7C
C6
C0
F8
3E
06
C6
7C
ENDCHAR
STARTCHAR t
ENCODING 116
SWIDTH 602 0
DWIDTH 9 0
BBX 7 10 1 0
BITMAP
30
30
FE
30
30
30
30
30
30
1E
ENDCHAR
STARTCHAR Rcaron
ENCODING 344
SWIDTH 602 0
DWIDTH 9 0
BBX 7 13 1 0
BITMAP
24
18
00
F8
CC
CC
CC
D8
F0
CC
CC
C6
C6
ENDCHAR
STARTCHAR u
ENCODING 117
SWIDTH 602 0
DWIDTH 9 0
BBX 7 8 1 0
BITMAP
C6
C6
C6
C6
C6
C6
EE
76
ENDCHAR
STARTCHAR rcaron
ENCODING 345
SWIDTH 602 0
DWIDTH 9 0
BBX 6 11 2 0
BITMAP
24
18
00
CC
DC
E4
C0
C0
C0
C0
C0
ENDCHAR
STARTCHAR v
ENCODING 118
SWIDTH 602 0
DWIDTH 9 0
BBX 7 8 1 0
BITMAP
C6
C6
C6
6C
6C
68
38
30
ENDCHAR
STARTCHAR Sacute
ENCODING 346
SWIDTH 602 0
DWIDTH 9 0
BBX 7 13 1 0
BITMAP
06
18
00
7C
C6
C0
E0
78
1C
0E
06
C6
7C
ENDCHAR
STARTCHAR w
ENCODING 119
SWIDTH 602 0
DWIDTH 9 0
BBX 8 8 1 0
BITMAP
C1
C1
C9
DD
DD
66
66
66
ENDCHAR
STARTCHAR sacute
ENCODING 347
SWIDTH 602 0
DWIDTH 9 0
BBX 7 11 1 0
BITMAP
06
18
00
7C
C6
C0
F8
3E
06
C6
7C
ENDCHAR
STARTCHAR Uring
ENCODING 366
SWIDTH 602 0
DWIDTH 9 0
BBX 7 12 1 0
BITMAP
18
24
DE
C6
C6
C6
C6
C6
C6
C6
6C
38
ENDCHAR
STARTCHAR uring
ENCODING 367
SWIDTH 602 0
DWIDTH 9 0
BBX 7 11 1 0
BITMAP
18
24
18
C6
C6
C6
C6
C6
C6
EE
76
ENDCHAR
STARTCHAR zdotaccent
ENCODING 380
SWIDTH 602 0
DWIDTH 9 0
BBX 7 11 1 0
BITMAP
18
18
00
FE
06
0C
18
30
60
C0
FE
ENDCHAR
STARTCHAR Uhungarumlaut
ENCODING 368
SWIDTH 602 0
DWIDTH 9 0
BBX 7 13 1 0
BITMAP
12
24
00
C6
C6
C6
C6
C6
C6
C6
C6
6C
38
ENDCHAR
STARTCHAR Zcaron
ENCODING 381
SWIDTH 602 0
DWIDTH 9 0
BBX 7 13 1 0
BITMAP
24
18
00
FE
06
0C
18
18
30
60
60
C0
FE
ENDCHAR
STARTCHAR uhungarumlaut
ENCODING 369
SWIDTH 602 0
DWIDTH 9 0
BBX 7 11 1 0
BITMAP
12
24
00
C6
C6
C6
C6
C6
C6
EE
76
ENDCHAR
STARTCHAR zcaron
ENCODING 382
SWIDTH 602 0
DWIDTH 9 0
BBX 7 11 1 0
BITMAP
24
18
00
FE
06
0C
18
30
60
C0
FE
ENDCHAR
STARTCHAR hyphen
ENCODING 173
SWIDTH 602 0
DWIDTH 9 0
BBX 4 2 3 3
BITMAP
F0
F0
ENDCHAR
STARTCHAR uni000A
ENCODING 10
SWIDTH 602 0
DWIDTH 9 0
BBX 7 10 1 0
BITMAP
C6
CC
C8
D0
F0
D8
CC
CC
C6
C6
ENDCHAR
STARTCHAR uni000B
ENCODING 11
SWIDTH 602 0
DWIDTH 9 0
BBX 3 2 3 0
BITMAP
E0
E0
ENDCHAR
STARTCHAR degree
ENCODING 176
SWIDTH 602 0
DWIDTH 9 0
BBX 5 4 2 6
BITMAP
70
D8
D8
70
ENDCHAR
STARTCHAR uni000C
ENCODING 12
SWIDTH 602 0
DWIDTH 9 0
BBX 3 2 3 0
BITMAP
E0
E0
ENDCHAR
STARTCHAR uni000D
ENCODING 13
SWIDTH 602 0
DWIDTH 9 0
BBX 3 2 3 0
BITMAP
E0
E0
ENDCHAR
STARTCHAR Oacute
ENCODING 211
SWIDTH 602 0
DWIDTH 9 0
BBX 8 13 1 0
BITMAP
0C
30
00
3C
66
C3
C3
C3
C3
C3
C3
66
3C
ENDCHAR
STARTCHAR uni000E
ENCODING 14
SWIDTH 602 0
DWIDTH 9 0
BBX 3 4 3 7
BITMAP
60
80
E0
E0
ENDCHAR
STARTCHAR Ocircumflex
ENCODING 212
SWIDTH 602 0
DWIDTH 9 0
BBX 8 13 1 0
BITMAP
18
24
00
3C
66
C3
C3
C3
C3
C3
C3
66
3C
ENDCHAR
STARTCHAR uni000F
ENCODING 15
SWIDTH 602 0
DWIDTH 9 0
BBX 7 7 1 1
BITMAP
10
10
10
FE
10
10
10
ENDCHAR
STARTCHAR Aacute
ENCODING 193
SWIDTH 602 0
DWIDTH 9 0
BBX 8 13 1 0
BITMAP
0C
30
00
18
18
2C
2C
66
46
FE
C3
C3
C3
ENDCHAR
STARTCHAR Odieresis
ENCODING 214
SWIDTH 602 0
DWIDTH 9 0
BBX 8 13 1 0
BITMAP
24
24
00
3C
66
C3
C3
C3
C3
C3
C3
66
3C
ENDCHAR
STARTCHAR Acircumflex
ENCODING 194
SWIDTH 602 0
DWIDTH 9 0
BBX 8 13 1 0
BITMAP
18
24
00
18
18
2C
2C
66
46
FE
C3
C3
C3
ENDCHAR
STARTCHAR uni001E
ENCODING 30
SWIDTH 602 0
DWIDTH 9 0
BBX 6 10 2 0
BITMAP
C0
C0
C0
C0
C0
C0
C0
C0
C0
FC
ENDCHAR
STARTCHAR multiply
ENCODING 215
SWIDTH 602 0
DWIDTH 9 0
BBX 5 5 2 2
BITMAP
C8
70
20
70
98
ENDCHAR
STARTCHAR uni0012
ENCODING 18
SWIDTH 602 0
DWIDTH 9 0
BBX 7 1 1 4
BITMAP
FE
ENDCHAR
STARTCHAR Adieresis
ENCODING 196
SWIDTH 602 0
DWIDTH 9 0
BBX 8 13 1 0
BITMAP
24
24
00
18
18
2C
2C
66
46
FE
C3
C3
C3
ENDCHAR
STARTCHAR space
ENCODING 32
SWIDTH 602 0
DWIDTH 9 0
BBX 1 1 0 0
BITMAP
00
ENDCHAR
STARTCHAR exclam
ENCODING 33
SWIDTH 602 0
DWIDTH 9 0
BBX 2 10 3 0
BITMAP
C0
C0
C0
C0
C0
C0
80
00
C0
C0
ENDCHAR
STARTCHAR ccedilla
ENCODING 231
SWIDTH 602 0
DWIDTH 9 0
BBX 7 10 1 -2
BITMAP
3C
62
C0
C0
C0
C0
62
3C
08
30
ENDCHAR
STARTCHAR Uacute
ENCODING 218
SWIDTH 602 0
DWIDTH 9 0
BBX 7 13 1 0
BITMAP
0C
30
00
C6
C6
C6
C6
C6
C6
C6
C6
6C
38
ENDCHAR
STARTCHAR quotedbl
ENCODING 34
SWIDTH 602 0
DWIDTH 9 0
BBX 4 4 3 7
BITMAP
90
90
90
90
ENDCHAR
STARTCHAR Ccedilla
ENCODING 199
SWIDTH 602 0
DWIDTH 9 0
BBX 7 12 1 -2
BITMAP
3C
66
C0
C0
C0
C0
C0
C0
66
3C
08
30
ENDCHAR
STARTCHAR numbersign
ENCODING 35
SWIDTH 602 0
DWIDTH 9 0
BBX 9 10 0 0
BITMAP
1B00
1B00
1B00
FF80
3600
3600
FF80
6C00
6C00
6C00
ENDCHAR
STARTCHAR eacute
ENCODING 233
SWIDTH 602 0
DWIDTH 9 0
BBX 7 11 1 0
BITMAP
0C
30
00
3C
66
C6
FE
C0
C0
62
3C
ENDCHAR
STARTCHAR dollar
ENCODING 36
SWIDTH 602 0
DWIDTH 9 0
BBX 7 12 1 -1
BITMAP
08
7C
CA
C8
E8
78
3C
2E
26
A6
7C
20
ENDCHAR
STARTCHAR two
ENCODING 50
SWIDTH 602 0
DWIDTH 9 0
BBX 7 10 1 0
BITMAP
7C
CE
06
06
0C
18
30
60
FE
FE
ENDCHAR
STARTCHAR percent
ENCODING 37
SWIDTH 602 0
DWIDTH 9 0
BBX 8 10 1 0
BITMAP
70
D9
DA
74
08
10
2E
5B
9B
0E
ENDCHAR
STARTCHAR edieresis
ENCODING 235
SWIDTH 602 0
DWIDTH 9 0
BBX 7 11 1 0
BITMAP
24
24
00
3C
66
C6
FE
C0
C0
62
3C
ENDCHAR
STARTCHAR three
ENCODING 51
SWIDTH 602 0
DWIDTH 9 0
BBX 7 10 1 0
BITMAP
7C
CE
06
0C
38
0C
06
06
CE
7C
ENDCHAR
STARTCHAR ampersand
ENCODING 38
SWIDTH 602 0
DWIDTH 9 0
BBX 8 10 1 0
BITMAP
38
6C
6C
68
33
5B
CA
CC
EE
73
ENDCHAR
STARTCHAR four
ENCODING 52
SWIDTH 602 0
DWIDTH 9 0
BBX 7 10 1 0
BITMAP
0C
1C
2C
4C
8C
FE
FE
0C
0C
0C
ENDCHAR
STARTCHAR quotesingle
ENCODING 39
SWIDTH 602 0
DWIDTH 9 0
BBX 3 4 3 7
BITMAP
E0
E0
20
C0
ENDCHAR
STARTCHAR uacute
ENCODING 250
SWIDTH 602 0
DWIDTH 9 0
BBX 7 11 1 0
BITMAP
0C
30
00
C6
C6
C6
C6
C6
C6
EE
76
ENDCHAR
STARTCHAR iacute
ENCODING 237
SWIDTH 602 0
DWIDTH 9 0
BBX 6 11 1 0
BITMAP
0C
30
00
F8
18
18
18
18
18
18
18
ENDCHAR
STARTCHAR caron
ENCODING 711
SWIDTH 602 0
DWIDTH 9 0
BBX 4 2 2 9
BITMAP
90
60
ENDCHAR
STARTCHAR five
ENCODING 53
SWIDTH 602 0
DWIDTH 9 0
BBX 7 10 1 0
BITMAP
FE
FE
80
80
FC
0E
06
06
CC
78
ENDCHAR
STARTCHAR icircumflex
ENCODING 238
SWIDTH 602 0
DWIDTH 9 0
BBX 6 11 1 0
BITMAP
18
24
00
F8
18
18
18
18
18
18
18
ENDCHAR
STARTCHAR six
ENCODING 54
SWIDTH 602 0
DWIDTH 9 0
BBX 7 10 1 0
BITMAP
3C
66
C0
D8
EC
C6
C6
C6
6C
38
ENDCHAR
STARTCHAR udieresis
ENCODING 252
SWIDTH 602 0
DWIDTH 9 0
BBX 7 11 1 0
BITMAP
28
28
00
C6
C6
C6
C6
C6
C6
EE
76
ENDCHAR
STARTCHAR seven
ENCODING 55
SWIDTH 602 0
DWIDTH 9 0
BBX 7 10 1 0
BITMAP
FE
FE
06
0C
18
30
30
60
60
60
ENDCHAR
STARTCHAR yacute
ENCODING 253
SWIDTH 602 0
DWIDTH 9 0
BBX 7 13 1 -2
BITMAP
0C
30
00
C6
C6
C6
6C
6C
38
30
30
60
60
ENDCHAR
STARTCHAR eight
ENCODING 56
SWIDTH 602 0
DWIDTH 9 0
BBX 7 10 1 0
BITMAP
7C
C6
C6
E4
78
7C
CE
C6
C6
7C
ENDCHAR
STARTCHAR F
ENCODING 70
SWIDTH 602 0
DWIDTH 9 0
BBX 6 10 2 0
BITMAP
FC
C0
C0
C0
C0
FC
C0
C0
C0
C0
ENDCHAR
STARTCHAR uni0002
ENCODING 2
SWIDTH 602 0
DWIDTH 9 0
BBX 9 10 0 0
BITMAP
1B00
1B00
1B00
FF80
3600
3600
FF80
6C00
6C00
6C00
ENDCHAR
STARTCHAR nine
ENCODING 57
SWIDTH 602 0
DWIDTH 9 0
BBX 7 10 1 0
BITMAP
38
6C
C6
C6
C6
6E
36
06
CC
78
ENDCHAR
STARTCHAR uni0003
ENCODING 3
SWIDTH 602 0
DWIDTH 9 0
BBX 6 10 2 0
BITMAP
FC
30
30
30
30
30
30
30
30
FC
ENDCHAR
STARTCHAR G
ENCODING 71
SWIDTH 602 0
DWIDTH 9 0
BBX 7 10 1 0
BITMAP
3C
66
C0
C0
C0
C6
C6
C6
66
3E
ENDCHAR
STARTCHAR colon
ENCODING 58
SWIDTH 602 0
DWIDTH 9 0
BBX 2 7 3 0
BITMAP
C0
C0
00
00
00
C0
C0
ENDCHAR
STARTCHAR uni0004
ENCODING 4
SWIDTH 602 0
DWIDTH 9 0
BBX 6 10 2 0
BITMAP
C0
C0
C0
C0
C0
C0
C0
C0
C0
FC
ENDCHAR
STARTCHAR H
ENCODING 72
SWIDTH 602 0
DWIDTH 9 0
BBX 7 10 1 0
BITMAP
C6
C6
C6
C6
FE
C6
C6
C6
C6
C6
ENDCHAR
STARTCHAR semicolon
ENCODING 59
SWIDTH 602 0
DWIDTH 9 0
BBX 2 9 3 -2
BITMAP
C0
C0
00
00
00
C0
C0
40
80
ENDCHAR
STARTCHAR Dcaron
ENCODING 270
SWIDTH 602 0
DWIDTH 9 0
BBX 7 13 1 0
BITMAP
24
18
00
F8
CC
C6
C6
C6
C6
C6
C6
CC
F8
ENDCHAR
STARTCHAR ogonek
ENCODING 731
SWIDTH 602 0
DWIDTH 9 0
BBX 2 2 3 -2
BITMAP
80
C0
ENDCHAR
STARTCHAR uni0005
ENCODING 5
SWIDTH 602 0
DWIDTH 9 0
BBX 8 10 1 0
BITMAP
C3
C3
E7
E7
EF
BB
BB
93
83
83
ENDCHAR
STARTCHAR I
ENCODING 73
SWIDTH 602 0
DWIDTH 9 0
BBX 6 10 2 0
BITMAP
FC
30
30
30
30
30
30
30
30
FC
ENDCHAR
STARTCHAR dcaron
ENCODING 271
SWIDTH 602 0
DWIDTH 9 0
BBX 9 11 1 0
BITMAP
0680
0680
0680
3E80
6600
C600
C600
C600
C600
6E00
3600
ENDCHAR
STARTCHAR Abreve
ENCODING 258
SWIDTH 602 0
DWIDTH 9 0
BBX 8 13 1 0
BITMAP
22
1C
00
18
18
2C
2C
66
46
FE
C3
C3
C3
ENDCHAR
STARTCHAR uni0006
ENCODING 6
SWIDTH 602 0
DWIDTH 9 0
BBX 6 10 1 0
BITMAP
7C
0C
0C
0C
0C
0C
0C
0C
18
F0
ENDCHAR
STARTCHAR J
ENCODING 74
SWIDTH 602 0
DWIDTH 9 0
BBX 6 10 1 0
BITMAP
7C
0C
0C
0C
0C
0C
0C
0C
18
F0
ENDCHAR
STARTCHAR abreve
ENCODING 259
SWIDTH 602 0
DWIDTH 9 0
BBX 8 11 1 0
BITMAP
44
38
00
7C
06
06
7E
C6
C6
CE
77
ENDCHAR
STARTCHAR Dcroat
ENCODING 272
SWIDTH 602 0
DWIDTH 9 0
BBX 8 10 0 0
BITMAP
7C
66
63
63
FB
63
63
63
66
7C
ENDCHAR
STARTCHAR hungarumlaut
ENCODING 733
SWIDTH 602 0
DWIDTH 9 0
BBX 5 2 2 9
BITMAP
48
90
ENDCHAR
STARTCHAR uni0007
ENCODING 7
SWIDTH 602 0
DWIDTH 9 0
BBX 5 4 2 6
BITMAP
70
D8
D8
70
ENDCHAR
STARTCHAR K
ENCODING 75
SWIDTH 602 0
DWIDTH 9 0
BBX 7 10 1 0
BITMAP
C6
CC
C8
D0
F0
D8
CC
CC
C6
C6
ENDCHAR
STARTCHAR dcroat
ENCODING 273
SWIDTH 602 0
DWIDTH 9 0
BBX 8 11 1 0
BITMAP
06
3F
06
3E
66
C6
C6
C6
C6
6E
36
ENDCHAR
STARTCHAR L
ENCODING 76
SWIDTH 602 0
DWIDTH 9 0
BBX 6 10 2 0
BITMAP
C0
C0
C0
C0
C0
C0
C0
C0
C0
FC
ENDCHAR
STARTCHAR Z
ENCODING 90
SWIDTH 602 0
DWIDTH 9 0
BBX 7 10 1 0
BITMAP
FE
06
0C
18
18
30
60
60
C0
FE
ENDCHAR
STARTCHAR M
ENCODING 77
SWIDTH 602 0
DWIDTH 9 0
BBX 8 10 1 0
BITMAP
C3
C3
E7
E7
EF
BB
BB
93
83
83
ENDCHAR
STARTCHAR bracketleft
ENCODING 91
SWIDTH 602 0
DWIDTH 9 0
BBX 5 12 2 -1
BITMAP
F8
C0
C0
C0
C0
C0
C0
C0
C0
C0
C0
F8
ENDCHAR
STARTCHAR N
ENCODING 78
SWIDTH 602 0
DWIDTH 9 0
BBX 7 10 1 0
BITMAP
C2
E2
E2
B2
B2
9A
9A
8E
8E
86
ENDCHAR
STARTCHAR backslash
ENCODING 92
SWIDTH 602 0
DWIDTH 9 0
BBX 7 12 1 -1
BITMAP
C0
C0
60
60
30
30
18
18
0C
0C
06
06
ENDCHAR
STARTCHAR O
ENCODING 79
SWIDTH 602 0
DWIDTH 9 0
BBX 8 10 1 0
BITMAP
3C
66
C3
C3
C3
C3
C3
C3
66
3C
ENDCHAR
STARTCHAR bracketright
ENCODING 93
SWIDTH 602 0
DWIDTH 9 0
BBX 5 12 2 -1
BITMAP
F8
18
18
18
18
18
18
18
18
18
18
F8
ENDCHAR
STARTCHAR asciicircum
ENCODING 94
SWIDTH 602 0
DWIDTH 9 0
BBX 6 7 2 3
BITMAP
30
30
78
48
CC
84
84
ENDCHAR
STARTCHAR underscore
ENCODING 95
SWIDTH 602 0
DWIDTH 9 0
BBX 9 1 0 -1
BITMAP
FF80
ENDCHAR
STARTCHAR Lacute
ENCODING 313
SWIDTH 602 0
DWIDTH 9 0
BBX 6 13 2 0
BITMAP
18
60
00
C0
C0
C0
C0
C0
C0
C0
C0
C0
FC
ENDCHAR
STARTCHAR grave
ENCODING 96
SWIDTH 602 0
DWIDTH 9 0
BBX 3 4 3 7
BITMAP
60
80
E0
E0
ENDCHAR
STARTCHAR lacute
ENCODING 314
SWIDTH 602 0
DWIDTH 9 0
BBX 6 13 1 0
BITMAP
0C
30
F8
18
18
18
18
18
18
18
18
18
18
ENDCHAR
STARTCHAR d
ENCODING 100
SWIDTH 602 0
DWIDTH 9 0
BBX 7 11 1 0
BITMAP
06
06
06
3E
66
C6
C6
C6
C6
6E
36
ENDCHAR
STARTCHAR a
ENCODING 97
SWIDTH 602 0
DWIDTH 9 0
BBX 8 8 1 0
BITMAP
7C
06
06
7E
C6
C6
CE
77
ENDCHAR
STARTCHAR e
ENCODING 101
SWIDTH 602 0
DWIDTH 9 0
BBX 7 8 1 0
BITMAP
3C
66
C6
FE
C0
C0
62
3C
ENDCHAR
STARTCHAR b
ENCODING 98
SWIDTH 602 0
DWIDTH 9 0
BBX 7 11 1 0
BITMAP
C0
C0
C0
D8
EC
C6
C6
C6
C6
CC
F8
ENDCHAR
STARTCHAR f
ENCODING 102
SWIDTH 602 0
DWIDTH 9 0
BBX 7 11 1 0
BITMAP
1E
30
30
30
FE
30
30
30
30
30
30
ENDCHAR
STARTCHAR c
ENCODING 99
SWIDTH 602 0
DWIDTH 9 0
BBX 7 8 1 0
BITMAP
3C
66
C0
C0
C0
C0
62
3C
ENDCHAR
STARTCHAR Lcaron
ENCODING 317
SWIDTH 602 0
DWIDTH 9 0
BBX 6 10 2 0
BITMAP
D0
D0
D0
D0
C0
C0
C0
C0
C0
FC
ENDCHAR
STARTCHAR g
ENCODING 103
SWIDTH 602 0
DWIDTH 9 0
BBX 7 10 1 -2
BITMAP
3E
66
C6
C6
C6
6E
36
06
CC
78
ENDCHAR
STARTCHAR lcaron
ENCODING 318
SWIDTH 602 0
DWIDTH 9 0
BBX 7 11 1 0
BITMAP
FA
1A
1A
1A
18
18
18
18
18
18
18
ENDCHAR
STARTCHAR h
ENCODING 104
SWIDTH 602 0
DWIDTH 9 0
BBX 7 11 1 0
BITMAP
C0
C0
C0
DC
EE
C6
C6
C6
C6
C6
C6
ENDCHAR
STARTCHAR i
ENCODING 105
SWIDTH 602 0
DWIDTH 9 0
BBX 5 11 1 0
BITMAP
18
18
00
F8
18
18
18
18
18
18
18
ENDCHAR
STARTCHAR j
ENCODING 106
SWIDTH 602 0
DWIDTH 9 0
BBX 6 13 1 -2
BITMAP
0C
0C
00
7C
0C
0C
0C
0C
0C
0C
0C
0C
F8
ENDCHAR
STARTCHAR x
ENCODING 120
SWIDTH 602 0
DWIDTH 9 0
BBX 7 8 1 0
BITMAP
C6
C6
64
38
38
4C
C6
C6
ENDCHAR
STARTCHAR k
ENCODING 107
SWIDTH 602 0
DWIDTH 9 0
BBX 8 11 1 0
BITMAP
C0
C0
C0
C6
C4
C8
F0
D8
CC
C6
C7
ENDCHAR
STARTCHAR y
ENCODING 121
SWIDTH 602 0
DWIDTH 9 0
BBX 7 10 1 -2
BITMAP
C6
C6
C6
6C
6C
38
30
30
60
60
ENDCHAR
STARTCHAR l
ENCODING 108
SWIDTH 602 0
DWIDTH 9 0
BBX 5 11 1 0
BITMAP
F8
18
18
18
18
18
18
18
18
18
18
ENDCHAR
STARTCHAR Ohungarumlaut
ENCODING 336
SWIDTH 602 0
DWIDTH 9 0
BBX 8 13 1 0
BITMAP
12
24
00
3C
66
C3
C3
C3
C3
C3
C3
66
3C
ENDCHAR
STARTCHAR z
ENCODING 122
SWIDTH 602 0
DWIDTH 9 0
BBX 7 8 1 0
BITMAP
FE
06
0C
18
30
60
C0
FE
ENDCHAR
STARTCHAR m
ENCODING 109
SWIDTH 602 0
DWIDTH 9 0
BBX 7 8 1 0
BITMAP
AC
D6
D6
D6
D6
D6
D6
D6
ENDCHAR
STARTCHAR ohungarumlaut
ENCODING 337
SWIDTH 602 0
DWIDTH 9 0
BBX 7 11 1 0
BITMAP
12
24
00
38
6C
C6
C6
C6
C6
6C
38
ENDCHAR
STARTCHAR Scommaaccent
ENCODING 350
SWIDTH 602 0
DWIDTH 9 0
BBX 7 12 1 -2
BITMAP
7C
C6
C0
E0
78
1C
0E
06
C6
7C
10
60
ENDCHAR
STARTCHAR braceleft
ENCODING 123
SWIDTH 602 0
DWIDTH 9 0
BBX 6 12 2 -1
BITMAP
3C
60
60
30
10
E0
10
30
60
60
60
3C
ENDCHAR
STARTCHAR scommaaccent
ENCODING 351
SWIDTH 602 0
DWIDTH 9 0
BBX 7 10 1 -2
BITMAP
7C
C6
C0
F8
3E
06
C6
7C
10
60
ENDCHAR
STARTCHAR bar
ENCODING 124
SWIDTH 602 0
DWIDTH 9 0
BBX 2 12 4 -1
BITMAP
C0
C0
C0
C0
C0
C0
C0
C0
C0
C0
C0
C0
ENDCHAR
STARTCHAR Scaron
ENCODING 352
SWIDTH 602 0
DWIDTH 9 0
BBX 7 13 1 0
BITMAP
24
18
00
7C
C6
C0
E0
78
1C
0E
06
C6
7C
ENDCHAR
STARTCHAR braceright
ENCODING 125
SWIDTH 602 0
DWIDTH 9 0
BBX 6 12 1 -1
BITMAP
F0
18
18
30
20
1C
20
30
18
18
18
F0
ENDCHAR
STARTCHAR scaron
ENCODING 353
SWIDTH 602 0
DWIDTH 9 0
BBX 7 11 1 0
BITMAP
24
18
00
7C
C6
C0
F8
3E
06
C6
7C
ENDCHAR
STARTCHAR asciitilde
ENCODING 126
SWIDTH 602 0
DWIDTH 9 0
BBX 7 3 1 3
BITMAP
72
BA
9C
ENDCHAR
STARTCHAR Tcommaaccent
ENCODING 354
SWIDTH 602 0
DWIDTH 9 0
BBX 8 12 1 -2
BITMAP
FF
18
18
18
18
18
18
18
18
18
08
30
ENDCHAR
STARTCHAR tcommaaccent
ENCODING 355
SWIDTH 602 0
DWIDTH 9 0
BBX 7 12 1 -2
BITMAP
30
30
FE
30
30
30
30
30
30
1E
04
18
ENDCHAR
STARTCHAR Tcaron
ENCODING 356
SWIDTH 602 0
DWIDTH 9 0
BBX 8 13 1 0
BITMAP
24
18
00
FF
18
18
18
18
18
18
18
18
18
ENDCHAR
STARTCHAR tcaron
ENCODING 357
SWIDTH 602 0
DWIDTH 9 0
BBX 7 13 1 0
BITMAP
02
02
02
32
30
FE
30
30
30
30
30
30
1E
ENDCHAR
STARTCHAR Zacute
ENCODING 377
SWIDTH 602 0
DWIDTH 9 0
BBX 7 13 1 0
BITMAP
06
18
00
FE
06
0C
18
18
30
60
60
C0
FE
ENDCHAR
STARTCHAR zacute
ENCODING 378
SWIDTH 602 0
DWIDTH 9 0
BBX 7 11 1 0
BITMAP
06
18
00
FE
06
0C
18
30
60
C0
FE
ENDCHAR
STARTCHAR currency
ENCODING 164
SWIDTH 602 0
DWIDTH 9 0
BBX 9 10 0 0
BITMAP
8080
4100
3E00
3600
6300
6300
3600
3E00
4100
8080
ENDCHAR
STARTCHAR Zdotaccent
ENCODING 379
SWIDTH 602 0
DWIDTH 9 0
BBX 7 13 1 0
BITMAP
18
18
00
FE
06
0C
18
18
30
60
60
C0
FE
ENDCHAR
STARTCHAR acute
ENCODING 180
SWIDTH 602 0
DWIDTH 9 0
BBX 4 2 3 9
BITMAP
30
C0
ENDCHAR
STARTCHAR section
ENCODING 167
SWIDTH 602 0
DWIDTH 9 0
BBX 7 11 1 -1
BITMAP
7C
C6
C0
78
CC
C6
66
3C
06
C6
7C
ENDCHAR
STARTCHAR Eacute
ENCODING 201
SWIDTH 602 0
DWIDTH 9 0
BBX 6 13 2 0
BITMAP
18
60
00
FC
C0
C0
C0
F8
C0
C0
C0
C0
FC
ENDCHAR
STARTCHAR dieresis
ENCODING 168
SWIDTH 602 0
DWIDTH 9 0
BBX 3 2 3 9
BITMAP
A0
A0
ENDCHAR
STARTCHAR Edieresis
ENCODING 203
SWIDTH 602 0
DWIDTH 9 0
BBX 6 13 2 0
BITMAP
48
48
00
FC
C0
C0
C0
F8
C0
C0
C0
C0
FC
ENDCHAR
STARTCHAR cedilla
ENCODING 184
SWIDTH 602 0
DWIDTH 9 0
BBX 3 2 3 -2
BITMAP
20
C0
ENDCHAR
STARTCHAR Iacute
ENCODING 205
SWIDTH 602 0
DWIDTH 9 0
BBX 6 13 2 0
BITMAP
18
60
00
FC
30
30
30
30
30
30
30
30
FC
ENDCHAR
STARTCHAR uni0015
ENCODING 21
SWIDTH 602 0
DWIDTH 9 0
BBX 7 7 1 1
BITMAP
10
10
10
FE
10
10
10
ENDCHAR
STARTCHAR Icircumflex
ENCODING 206
SWIDTH 602 0
DWIDTH 9 0
BBX 6 13 2 0
BITMAP
30
48
00
FC
30
30
30
30
30
30
30
30
FC
ENDCHAR
STARTCHAR uni0016
ENCODING 22
SWIDTH 602 0
DWIDTH 9 0
BBX 7 7 1 1
BITMAP
10
10
10
FE
10
10
10
ENDCHAR
STARTCHAR Udieresis
ENCODING 220
SWIDTH 602 0
DWIDTH 9 0
BBX 7 13 1 0
BITMAP
28
28
00
C6
C6
C6
C6
C6
C6
C6
C6
6C
38
ENDCHAR
STARTCHAR uni0017
ENCODING 23
SWIDTH 602 0
DWIDTH 9 0
BBX 7 7 1 1
BITMAP
10
10
10
FE
10
10
10
ENDCHAR
STARTCHAR Yacute
ENCODING 221
SWIDTH 602 0
DWIDTH 9 0
BBX 8 13 1 0
BITMAP
0C
30
00
C3
C3
62
66
34
18
18
18
18
18
ENDCHAR
STARTCHAR uni0018
ENCODING 24
SWIDTH 602 0
DWIDTH 9 0
BBX 7 7 1 1
BITMAP
10
10
10
FE
10
10
10
ENDCHAR
STARTCHAR uni0019
ENCODING 25
SWIDTH 602 0
DWIDTH 9 0
BBX 2 12 4 -1
BITMAP
C0
C0
C0
C0
C0
C0
C0
C0
C0
C0
C0
C0
ENDCHAR
STARTCHAR uni2010
ENCODING 8208
SWIDTH 602 0
DWIDTH 9 0
BBX 7 1 1 4
BITMAP
FE
ENDCHAR
STARTCHAR germandbls
ENCODING 223
SWIDTH 602 0
DWIDTH 9 0
BBX 7 11 1 0
BITMAP
78
CC
CC
C8
D8
CC
C6
C6
C6
C6
CC
ENDCHAR
STARTCHAR uni001A
ENCODING 26
SWIDTH 602 0
DWIDTH 9 0
BBX 5 7 2 1
BITMAP
18
30
60
C0
60
30
18
ENDCHAR
STARTCHAR uni001B
ENCODING 27
SWIDTH 602 0
DWIDTH 9 0
BBX 5 7 2 1
BITMAP
C0
60
30
18
30
60
C0
ENDCHAR
STARTCHAR parenleft
ENCODING 40
SWIDTH 602 0
DWIDTH 9 0
BBX 5 12 2 -1
BITMAP
18
30
60
60
C0
C0
C0
C0
60
60
30
18
ENDCHAR
STARTCHAR aacute
ENCODING 225
SWIDTH 602 0
DWIDTH 9 0
BBX 8 11 1 0
BITMAP
0C
30
00
7C
06
06
7E
C6
C6
CE
77
ENDCHAR
STARTCHAR uni001C
ENCODING 28
SWIDTH 602 0
DWIDTH 9 0
BBX 7 10 1 -2
BITMAP
D8
EC
C6
C6
C6
C6
CC
F8
C0
C0
ENDCHAR
STARTCHAR parenright
ENCODING 41
SWIDTH 602 0
DWIDTH 9 0
BBX 5 12 2 -1
BITMAP
C0
60
30
30
18
18
18
18
30
30
60
C0
ENDCHAR
STARTCHAR acircumflex
ENCODING 226
SWIDTH 602 0
DWIDTH 9 0
BBX 8 11 1 0
BITMAP
18
24
00
7C
06
06
7E
C6
C6
CE
77
ENDCHAR
STARTCHAR asterisk
ENCODING 42
SWIDTH 602 0
DWIDTH 9 0
BBX 5 5 2 5
BITMAP
20
A8
70
A8
20
ENDCHAR
STARTCHAR plus
ENCODING 43
SWIDTH 602 0
DWIDTH 9 0
BBX 7 7 1 1
BITMAP
10
10
10
FE
10
10
10
ENDCHAR
STARTCHAR adieresis
ENCODING 228
SWIDTH 602 0
DWIDTH 9 0
BBX 8 11 1 0
BITMAP
28
28
00
7C
06
06
7E
C6
C6
CE
77
ENDCHAR
STARTCHAR comma
ENCODING 44
SWIDTH 602 0
DWIDTH 9 0
BBX 3 4 3 -2
BITMAP
E0
E0
20
C0
ENDCHAR
STARTCHAR hyphen
ENCODING 45
SWIDTH 602 0
DWIDTH 9 0
BBX 7 1 1 4
BITMAP
FE
ENDCHAR
STARTCHAR oacute
ENCODING 243
SWIDTH 602 0
DWIDTH 9 0
BBX 7 11 1 0
BITMAP
0C
30
00
38
6C
C6
C6
C6
C6
6C
38
ENDCHAR
STARTCHAR period
ENCODING 46
SWIDTH 602 0
DWIDTH 9 0
BBX 3 2 3 0
BITMAP
E0
E0
ENDCHAR
STARTCHAR ocircumflex
ENCODING 244
SWIDTH 602 0
DWIDTH 9 0
BBX 7 11 1 0
BITMAP
18
24
00
38
6C
C6
C6
C6
C6
6C
38
ENDCHAR
STARTCHAR less
ENCODING 60
SWIDTH 602 0
DWIDTH 9 0
BBX 5 7 2 1
BITMAP
18
30
60
C0
60
30
18
ENDCHAR
STARTCHAR slash
ENCODING 47
SWIDTH 602 0
DWIDTH 9 0
BBX 7 12 1 -1
BITMAP
06
06
0C
0C
18
18
30
30
60
60
C0
C0
ENDCHAR
STARTCHAR equal
ENCODING 61
SWIDTH 602 0
DWIDTH 9 0
BBX 7 3 1 3
BITMAP
FE
00
FE
ENDCHAR
STARTCHAR zero
ENCODING 48
SWIDTH 602 0
DWIDTH 9 0
BBX 7 10 1 0
BITMAP
38
6C
C6
C6
C6
C6
C6
C6
6C
38
ENDCHAR
STARTCHAR odieresis
ENCODING 246
SWIDTH 602 0
DWIDTH 9 0
BBX 7 11 1 0
BITMAP
28
28
00
38
6C
C6
C6
C6
C6
6C
38
ENDCHAR
STARTCHAR greater
ENCODING 62
SWIDTH 602 0
DWIDTH 9 0
BBX 5 7 2 1
BITMAP
C0
60
30
18
30
60
C0
ENDCHAR
STARTCHAR one
ENCODING 49
SWIDTH 602 0
DWIDTH 9 0
BBX 4 10 2 0
BITMAP
30
70
B0
30
30
30
30
30
30
30
ENDCHAR
STARTCHAR divide
ENCODING 247
SWIDTH 602 0
DWIDTH 9 0
BBX 7 7 1 1
BITMAP
10
10
00
FE
00
10
10
ENDCHAR
STARTCHAR Aogonek
ENCODING 260
SWIDTH 602 0
DWIDTH 9 0
BBX 8 12 1 -2
BITMAP
18
18
2C
2C
66
46
FE
C3
C3
C3
02
03
ENDCHAR
STARTCHAR question
ENCODING 63
SWIDTH 602 0
DWIDTH 9 0
BBX 7 10 1 0
BITMAP
7C
C6
06
06
1C
30
30
00
30
30
ENDCHAR
STARTCHAR aogonek
ENCODING 261
SWIDTH 602 0
DWIDTH 9 0
BBX 8 10 1 -2
BITMAP
7C
06
06
7E
C6
C6
CE
77
02
03
ENDCHAR
STARTCHAR at
ENCODING 64
SWIDTH 602 0
DWIDTH 9 0
BBX 9 10 0 0
BITMAP
1E00
6300
4300
8F00
9B00
9B00
9B00
4D80
6000
1E00
ENDCHAR
STARTCHAR Cacute
ENCODING 262
SWIDTH 602 0
DWIDTH 9 0
BBX 7 13 1 0
BITMAP
06
18
00
3C
66
C0
C0
C0
C0
C0
C0
66
3C
ENDCHAR
STARTCHAR A
ENCODING 65
SWIDTH 602 0
DWIDTH 9 0
BBX 8 10 1 0
BITMAP
18
18
2C
2C
66
46
FE
C3
C3
C3
ENDCHAR
STARTCHAR cacute
ENCODING 263
SWIDTH 602 0
DWIDTH 9 0
BBX 7 11 1 0
BITMAP
06
18
00
3C
66
C0
C0
C0
C0
62
3C
ENDCHAR
STARTCHAR B
ENCODING 66
SWIDTH 602 0
DWIDTH 9 0
BBX 6 10 2 0
BITMAP
F8
CC
CC
C8
F0
C8
CC
CC
CC
F8
ENDCHAR
STARTCHAR P
ENCODING 80
SWIDTH 602 0
DWIDTH 9 0
BBX 7 10 1 0
BITMAP
FC
C6
C6
C6
CC
F8
C0
C0
C0
C0
ENDCHAR
STARTCHAR C
ENCODING 67
SWIDTH 602 0
DWIDTH 9 0
BBX 7 10 1 0
BITMAP
3C
66
C0
C0
C0
C0
C0
C0
66
3C
ENDCHAR
STARTCHAR Q
ENCODING 81
SWIDTH 602 0
DWIDTH 9 0
BBX 8 12 1 -2
BITMAP
3C
66
C3
C3
C3
C3
C3
C3
66
3C
06
03
ENDCHAR
STARTCHAR D
ENCODING 68
SWIDTH 602 0
DWIDTH 9 0
BBX 7 10 1 0
BITMAP
F8
CC
C6
C6
C6
C6
C6
C6
CC
F8
ENDCHAR
STARTCHAR R
ENCODING 82
SWIDTH 602 0
DWIDTH 9 0
BBX 7 10 1 0
BITMAP
F8
CC
CC
CC
D8
F0
CC
CC
C6
C6
ENDCHAR
STARTCHAR E
ENCODING 69
SWIDTH 602 0
DWIDTH 9 0
BBX 6 10 2 0
BITMAP
FC
C0
C0
C0
F8
C0
C0
C0
C0
FC
ENDCHAR
STARTCHAR Eogonek
ENCODING 280
SWIDTH 602 0
DWIDTH 9 0
BBX 7 12 2 -2
BITMAP
FC
C0
C0
C0
F8
C0
C0
C0
C0
FC
04
06
ENDCHAR
STARTCHAR breve
ENCODING 728
SWIDTH 602 0
DWIDTH 9 0
BBX 5 2 2 9
BITMAP
88
70
ENDCHAR
STARTCHAR S
ENCODING 83
SWIDTH 602 0
DWIDTH 9 0
BBX 7 10 1 0
BITMAP
7C
C6
C0
E0
78
1C
0E
06
C6
7C
ENDCHAR
STARTCHAR dotaccent
ENCODING 729
SWIDTH 602 0
DWIDTH 9 0
BBX 2 2 3 9
BITMAP
C0
C0
ENDCHAR
STARTCHAR eogonek
ENCODING 281
SWIDTH 602 0
DWIDTH 9 0
BBX 7 10 1 -2
BITMAP
3C
66
C6
FE
C0
C0
62
3C
10
18
ENDCHAR
STARTCHAR Ccaron
ENCODING 268
SWIDTH 602 0
DWIDTH 9 0
BBX 7 13 1 0
BITMAP
24
18
00
3C
66
C0
C0
C0
C0
C0
C0
66
3C
ENDCHAR
STARTCHAR T
ENCODING 84
SWIDTH 602 0
DWIDTH 9 0
BBX 8 10 1 0
BITMAP
FF
18
18
18
18
18
18
18
18
18
ENDCHAR
STARTCHAR ccaron
ENCODING 269
SWIDTH 602 0
DWIDTH 9 0
BBX 7 11 1 0
BITMAP
24
18
00
3C
66
C0
C0
C0
C0
62
3C
ENDCHAR
STARTCHAR Ecaron
ENCODING 282
SWIDTH 602 0
DWIDTH 9 0
BBX 6 13 2 0
BITMAP
48
30
00
FC
C0
C0
C0
F8
C0
C0
C0
C0
FC
ENDCHAR
STARTCHAR U
ENCODING 85
SWIDTH 602 0
DWIDTH 9 0
BBX 7 10 1 0
BITMAP
C6
C6
C6
C6
C6
C6
C6
C6
6C
38
ENDCHAR
STARTCHAR ecaron
ENCODING 283
SWIDTH 602 0
DWIDTH 9 0
BBX 7 11 1 0
BITMAP
24
18
00
3C
66
C6
FE
C0
C0
62
3C
ENDCHAR
STARTCHAR V
ENCODING 86
SWIDTH 602 0
DWIDTH 9 0
BBX 8 10 1 0
BITMAP
C3
C3
C3
62
62
66
34
34
18
18
ENDCHAR
STARTCHAR W
ENCODING 87
SWIDTH 602 0
DWIDTH 9 0
BBX 8 10 1 0
BITMAP
C3
C3
DB
DB
DB
DB
66
66
66
66
ENDCHAR
STARTCHAR X
ENCODING 88
SWIDTH 602 0
DWIDTH 9 0
BBX 7 10 1 0
BITMAP
C6
C6
C6
64
38
38
4C
C6
C6
C6
ENDCHAR
STARTCHAR Y
ENCODING 89
SWIDTH 602 0
DWIDTH 9 0
BBX 8 10 1 0
BITMAP
C3
C3
62
66
34
18
18
18
18
18
ENDCHAR
ENDFONT
